<mxfile host="65bd71144e">
    <diagram id="dwWN3IYhFgC4b_ADWS-x" name="Page-1">
        <mxGraphModel dx="1054" dy="668" grid="1" gridSize="10" guides="1" tooltips="1" connect="1" arrows="1" fold="1" page="1" pageScale="1" pageWidth="827" pageHeight="1169" math="0" shadow="0">
            <root>
                <mxCell id="0"/>
                <mxCell id="1" parent="0"/>
                <mxCell id="16" style="edgeStyle=none;html=1;exitX=1;exitY=1;exitDx=0;exitDy=0;entryX=0.5;entryY=0;entryDx=0;entryDy=0;" edge="1" parent="1" source="2" target="5">
                    <mxGeometry relative="1" as="geometry"/>
                </mxCell>
                <mxCell id="19" style="edgeStyle=none;html=1;exitX=0.5;exitY=1;exitDx=0;exitDy=0;" edge="1" parent="1" source="2" target="4">
                    <mxGeometry relative="1" as="geometry"/>
                </mxCell>
                <mxCell id="2" value="App" style="rounded=0;whiteSpace=wrap;html=1;" vertex="1" parent="1">
                    <mxGeometry x="340" y="80" width="120" height="60" as="geometry"/>
                </mxCell>
                <mxCell id="3" value="Detailed Recipe" style="rounded=1;whiteSpace=wrap;html=1;" vertex="1" parent="1">
                    <mxGeometry x="120" y="430" width="120" height="60" as="geometry"/>
                </mxCell>
                <mxCell id="12" style="edgeStyle=none;html=1;exitX=0.5;exitY=1;exitDx=0;exitDy=0;entryX=0.5;entryY=0;entryDx=0;entryDy=0;" edge="1" parent="1" source="4" target="3">
                    <mxGeometry relative="1" as="geometry"/>
                </mxCell>
                <mxCell id="13" style="edgeStyle=none;html=1;exitX=0.5;exitY=1;exitDx=0;exitDy=0;" edge="1" parent="1" source="4" target="6">
                    <mxGeometry relative="1" as="geometry"/>
                </mxCell>
                <mxCell id="4" value="Recipe List" style="rounded=1;whiteSpace=wrap;html=1;" vertex="1" parent="1">
                    <mxGeometry x="340" y="230" width="120" height="60" as="geometry"/>
                </mxCell>
                <mxCell id="5" value="Search Component" style="rounded=1;whiteSpace=wrap;html=1;" vertex="1" parent="1">
                    <mxGeometry x="600" y="230" width="120" height="60" as="geometry"/>
                </mxCell>
                <mxCell id="6" value="Recipe" style="rounded=1;whiteSpace=wrap;html=1;" vertex="1" parent="1">
                    <mxGeometry x="340" y="430" width="120" height="60" as="geometry"/>
                </mxCell>
                <mxCell id="8" value="Input&amp;nbsp;&lt;br&gt;Button&lt;br&gt;(filter/checkbox)" style="whiteSpace=wrap;html=1;aspect=fixed;" vertex="1" parent="1">
                    <mxGeometry x="600" y="310" width="120" height="120" as="geometry"/>
                </mxCell>
                <mxCell id="9" value="&amp;lt;Recipe /&amp;gt;&lt;br&gt;map each component into a list" style="whiteSpace=wrap;html=1;aspect=fixed;" vertex="1" parent="1">
                    <mxGeometry x="360" y="320" width="80" height="80" as="geometry"/>
                </mxCell>
                <mxCell id="10" value="All data for 1 title, image" style="whiteSpace=wrap;html=1;aspect=fixed;" vertex="1" parent="1">
                    <mxGeometry x="360" y="510" width="80" height="80" as="geometry"/>
                </mxCell>
                <mxCell id="11" value="Function that pulls data again (more detail)" style="whiteSpace=wrap;html=1;aspect=fixed;" vertex="1" parent="1">
                    <mxGeometry x="140" y="505" width="80" height="80" as="geometry"/>
                </mxCell>
                <mxCell id="14" value="" style="ellipse;whiteSpace=wrap;html=1;" vertex="1" parent="1">
                    <mxGeometry x="40" y="350" width="260" height="260" as="geometry"/>
                </mxCell>
                <mxCell id="15" value="useState for saving search &quot;&quot;" style="ellipse;whiteSpace=wrap;html=1;" vertex="1" parent="1">
                    <mxGeometry x="740" y="200" width="110" height="110" as="geometry"/>
                </mxCell>
                <mxCell id="20" value="Use state for List of recipes [{}]" style="ellipse;whiteSpace=wrap;html=1;aspect=fixed;" vertex="1" parent="1">
                    <mxGeometry x="520" y="30" width="130" height="130" as="geometry"/>
                </mxCell>
                <mxCell id="21" value="Function to access API data" style="rounded=1;whiteSpace=wrap;html=1;" vertex="1" parent="1">
                    <mxGeometry x="170" y="80" width="120" height="60" as="geometry"/>
                </mxCell>
            </root>
        </mxGraphModel>
    </diagram>
</mxfile>